<?xml version="1.0" encoding="UTF-8" standalone="no"?>
<svg
   width="120px"
   height="120px"
   viewBox="0 0 120 120"
   id="Layer_1"
   style="enable-background:new 0 0 120 120;"
   version="1.1"
   xml:space="preserve"
   sodipodi:docname="quality-premium-certificate-svgrepo-com.svg"
   inkscape:version="1.2.1 (9c6d41e, 2022-07-14)"
   xmlns:inkscape="http://www.inkscape.org/namespaces/inkscape"
   xmlns:sodipodi="http://sodipodi.sourceforge.net/DTD/sodipodi-0.dtd"
   xmlns="http://www.w3.org/2000/svg"
   xmlns:svg="http://www.w3.org/2000/svg"><defs
     id="defs19" /><sodipodi:namedview
     id="namedview17"
     pagecolor="#505050"
     bordercolor="#eeeeee"
     borderopacity="1"
     inkscape:showpageshadow="0"
     inkscape:pageopacity="0"
     inkscape:pagecheckerboard="0"
     inkscape:deskcolor="#505050"
     showgrid="false"
     inkscape:zoom="1.9666667"
     inkscape:cx="60.254237"
     inkscape:cy="60.254237"
     inkscape:window-width="1728"
     inkscape:window-height="1051"
     inkscape:window-x="0"
     inkscape:window-y="38"
     inkscape:window-maximized="1"
     inkscape:current-layer="Layer_1" /><style
     type="text/css"
     id="style2">
	.st0{fill:#647EFF;}
	.st1{fill:#FFFFFF;}
	.st2{fill:#FFD77A;}
</style><g
     id="g14"><polygon
       class="st0"
       points="60,13.7 70.7,19.9 83.1,19.9 89.3,30.7 100.1,36.9 100.1,49.3 106.3,60 100.1,70.7 100.1,83.1    89.3,89.3 83.1,100.1 70.7,100.1 60,106.3 49.3,100.1 36.9,100.1 30.7,89.3 19.9,83.1 19.9,70.7 13.7,60 19.9,49.3 19.9,36.9    30.7,30.7 36.9,19.9 49.3,19.9  "
       id="polygon4" /><g
       id="g8"><path
         class="st1"
         d="M60,93.9c-18.7,0-33.9-15.2-33.9-33.9S41.3,26.1,60,26.1S93.9,41.3,93.9,60S78.7,93.9,60,93.9z M60,29    c-17.1,0-31,13.9-31,31s13.9,31,31,31s31-13.9,31-31S77.1,29,60,29z"
         id="path6" /></g><g
       id="g12"><path
         class="st2"
         d="M56.3,72.6L41.6,60.9c-1.2-1-1.4-2.7-0.4-3.9l0,0c1-1.2,2.7-1.4,3.9-0.4l12.6,10.1l16.8-18.8    c1-1.1,2.8-1.2,3.9-0.2v0c1.1,1,1.2,2.8,0.2,3.9L60.1,72.3C59.1,73.4,57.4,73.5,56.3,72.6z"
         id="path10" /></g></g><path
     style="fill:#34f477;stroke-width:0.508475"
     d="M 53.389831,89.969451 C 42.639459,87.652205 33.074753,78.373788 30.247701,67.520003 29.277602,63.795543 29.276919,56.207081 30.246301,52.485195 31.669655,47.020571 34.02791,42.999848 38.386,38.607357 c 3.039618,-3.06361 5.039377,-4.580426 7.885531,-5.98117 12.167244,-5.988146 25.590444,-3.804294 35.142962,5.717493 6.274175,6.25399 9.093936,12.968976 9.093936,21.65632 0,8.687344 -2.819761,15.40233 -9.093936,21.656319 -7.599387,7.574939 -17.636514,10.552312 -28.024708,8.313132 z M 69.243005,62.507004 c 8.963991,-10.006648 9.824792,-11.130221 9.824792,-12.823966 0,-1.437057 -0.268128,-1.990071 -1.186995,-2.448175 -0.652847,-0.32548 -1.618824,-0.478856 -2.146615,-0.340835 -0.527791,0.13802 -4.550215,4.287395 -8.938721,9.220832 -4.388505,4.933437 -8.227614,9.247416 -8.531351,9.58662 -0.419656,0.468658 -2.136403,-0.660621 -7.15017,-4.70339 -4.043802,-3.260653 -7.045542,-5.320124 -7.754238,-5.320124 -1.385165,0 -3.190215,1.671207 -3.190215,2.953663 0,1.320328 0.772849,2.156347 5.337136,5.773375 9.723268,7.70533 11.64025,9.069572 12.744221,9.069572 0.877759,0 3.604743,-2.720884 10.992156,-10.967572 z"
     id="path317" /><path
     style="fill:#71d7f9;stroke-width:0.508475;fill-opacity:1"
     d="m 54.661017,102.93389 -5.084746,-2.994692 -6.206385,-0.01195 -6.206384,-0.01199 -2.114335,-3.68644 C 30.997569,89.164668 30.894966,89.054929 25.468962,85.9827 L 20.338983,83.078085 V 76.965707 70.853329 L 17.288136,65.633761 C 15.610169,62.763001 14.237288,60.227808 14.237288,60 c 0,-0.227808 1.372881,-2.763001 3.050848,-5.633762 l 3.050847,-5.219565 v -6.112378 -6.112377 l 5.129979,-2.904619 c 5.426004,-3.07223 5.528607,-3.181965 9.580205,-10.246113 l 2.114335,-3.68644 h 6.151773 6.151773 l 5.298563,-3.040254 5.298563,-3.040253 5.211784,3.040253 5.211788,3.040254 h 6.162925 6.162926 l 3.217535,5.447719 3.217536,5.447718 5.206174,2.981929 5.206175,2.98193 v 6.09014 6.090141 l 2.786893,4.735333 c 1.53279,2.604434 2.92879,5.105108 3.10221,5.557053 0.19474,0.507484 -0.871,2.851358 -2.78689,6.129167 l -3.102213,5.307453 v 6.101313 6.101314 l -5.206175,2.981934 -5.206174,2.981929 -3.217536,5.447715 -3.217535,5.44772 H 76.650671 70.487746 L 65.2578,102.9661 c -2.876472,1.67797 -5.293418,3.03097 -5.370993,3.00667 -0.07757,-0.0243 -2.42918,-1.3918 -5.22579,-3.03888 z m 13.949222,-9.940221 c 4.518412,-1.142425 10.679639,-4.438759 14.123105,-7.556038 4.180287,-3.784312 7.910242,-9.451633 9.64232,-14.650592 C 93.606529,67.092498 93.767217,65.846853 93.767217,60 c 0,-5.846853 -0.160688,-7.092498 -1.391553,-10.787037 C 88.761737,38.365465 79.4094,29.747043 68.135593,26.875107 64.181369,25.867792 56.858718,25.758422 52.627119,26.643475 47.959935,27.619632 40.904265,31.253774 37.266658,34.555141 33.082003,38.352988 29.354746,44.018996 27.624337,49.212963 26.393472,52.907502 26.232781,54.153147 26.232781,60 c 0,5.846853 0.160691,7.092498 1.391556,10.787039 5.632681,16.906953 23.550401,26.614978 40.985902,22.20663 z"
     id="path319" /><path
     style="fill:#3dc8f7;fill-opacity:1;stroke-width:0.508475"
     d="M 52.435806,89.452053 C 43.162492,86.957893 34.530698,78.882517 31.275317,69.655604 c -1.051958,-2.981625 -1.255594,-4.501132 -1.264592,-9.436197 -0.0171,-9.378072 2.316858,-15.067389 8.848137,-21.568457 6.021173,-5.993321 12.964649,-8.905187 21.234822,-8.905187 8.320248,0 15.047831,2.895526 21.262248,9.151192 4.157034,4.184626 6.632009,8.271018 7.878992,13.00887 1.039545,3.949708 1.034323,12.258356 -0.01017,16.227498 -2.506861,9.525971 -11.97713,18.764799 -21.87844,21.343767 -3.718628,0.968578 -11.263319,0.955912 -14.910483,-0.02502 z m 10.42209,-19.663917 c 4.761321,-4.882217 13.219599,-14.371999 15.023772,-16.855952 1.754263,-2.415237 1.870689,-4.522261 0.310278,-5.615216 -0.621549,-0.435349 -1.511895,-0.791544 -1.978547,-0.791544 -0.893227,0 -5.781579,4.970016 -13.405061,13.629007 -2.510499,2.851504 -4.798635,5.179119 -5.084746,5.172478 -0.286111,-0.0066 -3.374697,-2.180369 -6.863525,-4.830508 -6.554267,-4.97867 -8.00199,-5.568533 -9.760707,-3.976916 -1.446524,1.309086 -1.161609,3.316864 0.722674,5.092645 2.209481,2.082253 11.94021,9.755636 13.855932,10.926403 2.482737,1.51729 3.337091,1.190015 7.17993,-2.750397 z"
     id="path2396" /></svg>
