<?xml version="1.0" encoding="UTF-8" standalone="no"?>
<svg
   version="1.1"
   id="Layer_1"
   x="0px"
   y="0px"
   width="24px"
   height="24px"
   viewBox="0 0 24 24"
   overflow="visible"
   xml:space="preserve"
   sodipodi:docname="master.svg"
   inkscape:version="1.2.1 (9c6d41e, 2022-07-14)"
   xmlns:inkscape="http://www.inkscape.org/namespaces/inkscape"
   xmlns:sodipodi="http://sodipodi.sourceforge.net/DTD/sodipodi-0.dtd"
   xmlns="http://www.w3.org/2000/svg"
   xmlns:svg="http://www.w3.org/2000/svg"><defs
   id="defs12" /><sodipodi:namedview
   id="namedview10"
   pagecolor="#505050"
   bordercolor="#eeeeee"
   borderopacity="1"
   inkscape:showpageshadow="0"
   inkscape:pageopacity="0"
   inkscape:pagecheckerboard="0"
   inkscape:deskcolor="#505050"
   showgrid="false"
   inkscape:zoom="9.8333333"
   inkscape:cx="16.932203"
   inkscape:cy="13.474576"
   inkscape:window-width="1728"
   inkscape:window-height="1051"
   inkscape:window-x="0"
   inkscape:window-y="38"
   inkscape:window-maximized="1"
   inkscape:current-layer="Layer_1" />
<g
   id="g7">
	<g
   transform="translate(3.000000, 0.000000)"
   id="g5">
		<path
   id="Shield"
   fill="#4285F4"
   d="M9,0l-9.7,4.4v6.5C-0.8,17,3.4,22.6,9,24c5.6-1.4,9.7-7,9.7-13.1V4.4L9,0L9,0z" />
		<path
   id="Path-3"
   fill="#2879EA"
   d="M18.7,12c-0.1,0.8-0.2,1.6-0.4,2.2c-0.2,0.9-0.5,1.6-0.7,2.1c-0.1,0.3-0.2,0.5-0.3,0.7    c-0.2,0.3-0.3,0.6-0.5,0.9c-0.4,0.7-0.8,1.2-1.2,1.7c-0.4,0.5-0.9,1-1.5,1.6c-0.6,0.5-0.7,0.7-1.4,1.1s-1.1,0.7-2.4,1.2    C10,23.7,9.6,23.8,9,24l-3.2-4.4V6H9h4.7L18.7,12z" />
		<path
   id="certificate-manager"
   fill="#FFFFFF"
   d="M9,3.3c3,0,5.4,2.4,5.4,5.5c0,1.8-0.8,3.4-2.2,4.4l0,6.5L9,16.6l-3.2,3.1l0-6.5    c-1.3-1-2.2-2.6-2.2-4.4C3.6,5.7,6,3.3,9,3.3z M9,11.5c1.5,0,2.7-1.2,2.7-2.7S10.5,6,9,6S6.3,7.2,6.3,8.7S7.5,11.5,9,11.5z" />
	</g>
</g>
<path
   style="fill:#71d7f9;fill-opacity:1;stroke-width:0.101695"
   d="M 10.74626,23.54172 C 7.294391,22.258947 4.3000926,19.065518 3.0603378,15.344654 2.4200228,13.422884 2.3898305,13.117683 2.3898305,8.5667708 V 4.4216771 l 4.8041439,-2.181899 4.8041436,-2.18189896 4.806026,2.17762426 4.806025,2.1776242 0.0267,3.7387791 c 0.01503,2.1049993 -0.01169,3.6960053 -0.06115,3.6408943 -0.04832,-0.05384 -1.13382,-1.35636 -2.412232,-2.8944959 -1.278412,-1.5381356 -2.383524,-2.8570824 -2.455803,-2.9309928 -0.07228,-0.07391 -0.131415,-0.1731886 -0.131415,-0.2206182 0,-0.191202 -1.105737,-1.2815748 -1.670631,-1.6474174 -1.69652,-1.0987185 -4.11476,-1.0987185 -5.8112803,0 -1.6236971,1.051556 -2.5151516,2.7335225 -2.5143882,4.7440627 5.491e-4,1.4482786 0.5649492,2.8062106 1.6121664,3.8788356 l 0.5536248,0.567057 v 3.23674 c 0,1.780207 0.039469,3.251994 0.087709,3.270639 0.07397,0.02859 2.6702853,3.542805 2.8988623,3.923728 0.113934,0.189868 -0.09761,0.15155 -0.986074,-0.178619 z"
   id="path4035" /><path
   style="fill:#a5e6fb;fill-opacity:1;stroke-width:0.101695"
   d="M 10.52932,21.913708 C 9.7103354,20.789884 9.0181639,19.812819 8.9911612,19.742451 8.9638572,19.671298 9.6211283,18.969682 10.471959,18.161749 l 1.529893,-1.452761 1.600769,1.525614 1.600769,1.525614 0.05085,-3.272755 0.05085,-3.272755 0.420995,-0.380247 c 1.520899,-1.373691 2.11764,-3.8460759 1.418258,-5.8760471 -0.08375,-0.2430976 -0.140707,-0.4535683 -0.126563,-0.4677126 0.02107,-0.021071 2.234405,2.6101458 4.213789,5.0093637 l 0.434956,0.527209 -0.112094,0.749076 c -0.143391,0.958236 -0.626098,2.654065 -1.020158,3.583992 -0.990119,2.336543 -3.153799,4.891842 -5.130983,6.059676 -0.794308,0.469162 -2.524279,1.272286 -3.16528,1.469454 -0.192966,0.05936 -0.400354,-0.18045 -1.708685,-1.975762 z"
   id="path5489" /><path
   style="fill:#a5e6fb;fill-opacity:1;stroke-width:0.101695"
   d="M 11.148559,11.297611 C 10.566618,11.080955 10.078274,10.641507 9.7225909,10.014419 9.4460168,9.5268042 9.4070305,9.3628661 9.4087984,8.6949153 9.4102308,8.1537292 9.4652269,7.8288247 9.5981496,7.5762712 10.635869,5.6046015 13.222007,5.5584708 14.29331,7.4925203 c 0.258114,0.4659778 0.2996,0.6476043 0.297876,1.3040899 -0.0014,0.5412104 -0.05641,0.8660791 -0.189336,1.118644 -0.263771,0.5011658 -0.756352,0.9991138 -1.229367,1.2427618 -0.518175,0.266909 -1.500053,0.334632 -2.023924,0.139595 z"
   id="path5560" /></svg>
