<?xml version="1.0" encoding="UTF-8" standalone="no"?>
<!-- Generator: Adobe Illustrator 19.0.0, SVG Export Plug-In . SVG Version: 6.00 Build 0)  -->

<svg
   version="1.1"
   id="Layer_1"
   x="0px"
   y="0px"
   viewBox="0 0 392.663 392.663"
   style="enable-background:new 0 0 392.663 392.663;"
   xml:space="preserve"
   sodipodi:docname="master.svg"
   inkscape:version="1.2.1 (9c6d41e, 2022-07-14)"
   xmlns:inkscape="http://www.inkscape.org/namespaces/inkscape"
   xmlns:sodipodi="http://sodipodi.sourceforge.net/DTD/sodipodi-0.dtd"
   xmlns="http://www.w3.org/2000/svg"
   xmlns:svg="http://www.w3.org/2000/svg"><defs
   id="defs51" /><sodipodi:namedview
   id="namedview49"
   pagecolor="#505050"
   bordercolor="#eeeeee"
   borderopacity="1"
   inkscape:showpageshadow="0"
   inkscape:pageopacity="0"
   inkscape:pagecheckerboard="0"
   inkscape:deskcolor="#505050"
   showgrid="false"
   inkscape:zoom="0.6010243"
   inkscape:cx="197.16341"
   inkscape:cy="197.16341"
   inkscape:window-width="1728"
   inkscape:window-height="1051"
   inkscape:window-x="0"
   inkscape:window-y="38"
   inkscape:window-maximized="1"
   inkscape:current-layer="Layer_1" />
<path
   style="fill:#FFFFFF;"
   d="M359.822,21.821H32.711c-6.012,0-10.925,4.848-10.925,10.925v261.624  c0,6.012,4.848,10.925,10.925,10.925h14.545c-0.388-2.909-0.711-5.883-0.711-8.857c0-35.62,28.962-64.582,64.582-64.582  s64.582,28.962,64.582,64.582c0,3.038-0.323,5.947-0.711,8.857h184.76c6.012,0,10.925-4.848,10.925-10.925V32.747  C370.747,26.735,365.834,21.821,359.822,21.821z"
   id="path2" />
<path
   style="fill:#56ACE0;"
   d="M174.545,283.446h156.768c9.762,0,17.648-7.887,17.648-17.648V61.256  c0-9.762-7.887-17.648-17.648-17.648H61.22c-9.762,0-17.648,7.887-17.648,17.648v204.606c0,4.848,2.004,9.244,5.172,12.412"
   id="path4" />
<path
   style="fill:#FFC10D;"
   d="M153.923,296.375c0-23.596-19.135-42.796-42.796-42.796c-23.596,0-42.796,19.135-42.796,42.796  c0,13.576,6.335,26.117,17.325,34.327c2.78,2.069,4.396,5.301,4.396,8.727v21.657l14.998-10.214c3.232-2.327,8.275-2.65,12.283,0  l14.998,10.214V339.43c0-3.491,1.616-6.723,4.396-8.727C147.588,322.492,153.923,310.08,153.923,296.375z"
   id="path6" />
<g
   id="g16">
	<path
   style="fill:#194F82;"
   d="M359.822,0.036H32.711C14.675,0.036,0,14.71,0,32.747v261.624c0,18.036,14.675,32.711,32.711,32.711   h21.657c3.556,6.465,8.21,12.412,13.899,17.519v37.107c-0.129,8.016,8.986,14.158,17.067,9.051l25.859-17.648l25.859,17.648   c9.762,5.689,17.713-3.038,17.067-9.051v-37.107c5.689-5.107,10.343-11.055,13.899-17.519h191.935   c18.036,0,32.711-14.675,32.711-32.711V32.747C392.533,14.71,377.859,0.036,359.822,0.036z M136.598,330.702   c-2.78,2.069-4.396,5.301-4.396,8.727v21.657l-14.933-10.214c-4.008-2.65-9.051-2.327-12.283,0l-14.998,10.214V339.43   c0-3.491-1.616-6.723-4.396-8.727c-10.99-8.21-17.325-20.687-17.325-34.327c0-23.596,19.135-42.796,42.796-42.796   c23.596,0,42.796,19.135,42.796,42.796C153.923,310.08,147.588,322.492,136.598,330.702z M359.822,305.232H174.998   c0.388-2.909,0.711-5.883,0.711-8.857c0-35.62-28.962-64.582-64.582-64.582s-64.582,28.962-64.582,64.582   c0,3.038,0.323,5.947,0.711,8.857H32.711c-6.012,0-10.925-4.848-10.925-10.925V32.747c0-6.012,4.848-10.925,10.925-10.925h327.111   c6.012,0,10.925,4.848,10.925,10.925v261.624h0.065C370.747,300.383,365.899,305.232,359.822,305.232z"
   id="path8" />
	<path
   style="fill:#194F82;"
   d="M333.188,190.226H59.345c-6.012,0-10.925,4.848-10.925,10.925s4.848,10.925,10.925,10.925h273.842   c6.012,0,10.925-4.848,10.925-10.925S339.2,190.226,333.188,190.226z"
   id="path10" />
	<path
   style="fill:#194F82;"
   d="M333.188,241.038h-74.473c-6.012,0-10.925,4.848-10.925,10.925c0,6.012,4.848,10.925,10.925,10.925   h74.473c6.012,0,10.925-4.848,10.925-10.925C344.113,246.015,339.2,241.038,333.188,241.038z"
   id="path12" />
	<path
   style="fill:#194F82;"
   d="M70.012,174.904c6.012,0,10.925-4.848,10.925-10.925c0-49.519,50.101-89.794,111.644-89.794   s111.644,40.275,111.644,89.794c0,6.012,4.848,10.925,10.925,10.925c6.012,0,10.925-4.848,10.925-10.925   c0-61.608-59.863-111.644-133.43-111.644s-133.56,50.101-133.56,111.644C59.087,170.056,64,174.904,70.012,174.904z"
   id="path14" />
</g>
<g
   id="g18">
</g>
<g
   id="g20">
</g>
<g
   id="g22">
</g>
<g
   id="g24">
</g>
<g
   id="g26">
</g>
<g
   id="g28">
</g>
<g
   id="g30">
</g>
<g
   id="g32">
</g>
<g
   id="g34">
</g>
<g
   id="g36">
</g>
<g
   id="g38">
</g>
<g
   id="g40">
</g>
<g
   id="g42">
</g>
<g
   id="g44">
</g>
<g
   id="g46">
</g>
<path
   style="fill:#00ff00;fill-opacity:1;stroke-width:1.66383"
   d="M 25.908152,301.0337 C 23.574099,298.69965 23.293567,283.89263 23.293567,163.03047 V 27.641824 l 3.697865,-2.590085 c 3.286739,-2.302122 22.113789,-2.590085 169.340068,-2.590085 147.22627,0 166.05332,0.287963 169.34006,2.590085 l 3.69787,2.590085 V 163.03047 c 0,120.86216 -0.28054,135.66918 -2.61459,138.00323 -2.31501,2.31502 -13.3548,2.61459 -96.35414,2.61459 h -93.73955 l -0.56374,-9.98599 -0.56374,-9.98598 80.36224,0.003 c 87.17408,0.003 87.38079,-0.0173 91.51985,-9.10153 1.47571,-3.23912 1.98775,-32.10618 1.98775,-112.06314 0,-118.227351 0.51577,-112.162565 -10.00132,-117.601173 -7.24464,-3.746341 -278.896753,-3.746341 -286.141375,0 -10.517829,5.438979 -10.001333,-0.642575 -10.001333,117.762093 0,93.89376 0.331989,108.5031 2.563735,112.81884 1.410053,2.72674 2.142162,5.63983 1.626905,6.47353 -0.515256,0.83371 -1.000694,6.05277 -1.07875,11.59792 l -0.141923,10.0821 h -8.853356 c -5.830072,0 -9.746198,-0.89284 -11.467941,-2.61459 z"
   id="path2587" /><path
   style="fill:#ffffff;fill-opacity:1;stroke-width:1.66383"
   d="m 72.218358,388.33407 c -2.68822,-2.96592 -3.254223,-6.67098 -3.726995,-24.39689 l -0.557427,-20.89987 -6.929792,-8.04691 -6.929791,-8.04691 -11.646784,-0.01 C 27.435956,326.92039 19.625882,324.67484 12.348224,318.28497 -0.00502891,307.43869 0.83191312,318.65948 0.83191312,163.88689 V 24.957394 L 4.6083909,17.887987 C 6.6854535,13.999815 11.497249,8.758762 15.30127,6.2412041 L 22.217669,1.6638262 194.65709,1.225208 367.09651,0.78658988 374.47232,4.6820388 c 4.86,2.5667552 9.07835,6.6445332 12.36728,11.9551842 l 4.99148,8.059734 V 163.75667 c 0,127.71075 -0.23069,139.48085 -2.82671,144.22016 -4.02135,7.34144 -13.49551,15.16232 -20.83734,17.20116 -4.05551,1.12622 -40.95798,1.74859 -104.03461,1.75458 -53.76239,0.005 -97.7498,0.65259 -97.7498,1.43886 0,0.78628 -2.99488,4.83195 -6.6553,8.99041 l -6.65531,7.56082 v 20.86413 c 0,19.67425 -0.21088,21.01183 -3.69786,23.45421 -2.03383,1.42454 -4.84153,2.5885 -6.23935,2.58657 -1.39781,-0.002 -9.21458,-4.44687 -17.37059,-9.87767 l -14.82911,-9.87416 -14.157014,9.87767 c -15.285361,10.66494 -19.649058,11.79864 -24.559728,6.38066 z m 28.276812,-33.43183 c 8.47989,-6.09865 12.63032,-5.88703 23.10957,1.17836 l 8.66945,5.84517 0.4907,-12.76494 c 0.48939,-12.7308 0.51272,-12.78902 8.72409,-21.77357 14.28704,-15.63229 16.84569,-34.41724 7.12146,-52.28386 -7.78118,-14.29657 -20.91092,-21.7712 -38.25893,-21.7804 -12.933016,-0.007 -23.083046,4.64541 -31.840073,14.59392 -7.210616,8.19168 -10.294561,16.65281 -10.294561,28.24415 0,12.44404 3.227707,20.26599 12.78051,30.97201 l 8.849231,9.91752 v 12.514 c 0,13.71283 -0.587359,13.41841 10.648553,5.33764 z M 47.768689,300.75995 c -1.363465,-7.1325 1.868303,-23.29529 6.476071,-32.38829 13.206883,-26.06254 43.704675,-40.77825 70.35938,-33.94962 13.90616,3.56258 22.44912,8.21366 31.24783,17.01237 10.54418,10.54418 17.51269,26.22383 18.50135,41.62948 l 0.78604,12.24823 h 94.90425 c 85.97449,0 95.19053,-0.25909 97.94694,-2.75362 2.90076,-2.62515 3.04152,-9.08652 3.01723,-138.51353 -0.0133,-74.667958 -0.57555,-136.583739 -1.24787,-137.590625 -3.69557,-5.534638 -7.43239,-5.656517 -173.42841,-5.656517 -165.996021,0 -169.732835,0.121879 -173.428411,5.656517 -0.672316,1.006886 -1.233857,62.792574 -1.24787,137.301525 -0.02928,155.67426 -1.648236,141.55625 16.232709,141.55625 h 10.750961 z"
   id="path2589" /><path
   style="fill:#71d7f9;fill-opacity:1;stroke-width:1.66383"
   d="m 171.54605,272.14086 c -7.10156,-19.47668 -27.58901,-35.99174 -49.56306,-39.95306 -27.222939,-4.90757 -56.391843,9.5809 -68.777959,34.16261 -2.267186,4.49951 -4.350047,8.5336 -4.62858,8.96465 -2.888491,4.47015 -3.605369,-17.45196 -3.627664,-110.93393 -0.01784,-74.805808 0.528285,-108.037926 1.82213,-110.877606 4.026981,-8.838261 -0.507692,-8.580215 150.781333,-8.580215 h 140.4777 l 4.85487,5.433684 4.85487,5.433685 V 163.82035 271.85002 l -4.01457,4.66832 -4.01456,4.6683 -82.26509,0.46084 -82.2651,0.46087 z m 169.53833,-11.75205 c 1.84869,-1.8487 3.32765,-5.54608 3.32765,-8.31913 0,-2.77305 -1.47896,-6.47044 -3.32765,-8.31913 -3.14939,-3.14939 -5.54608,-3.32766 -44.73899,-3.32766 -37.70097,0 -41.74938,0.27374 -45.18425,3.05514 -4.99492,4.04463 -4.90965,13.20772 0.16106,17.31377 3.22969,2.61526 7.99289,2.92466 45.02312,2.92466 39.19291,0 41.5896,-0.17826 44.73899,-3.32765 z m 0.28495,-51.00458 c 4.6557,-4.21334 3.97313,-12.91125 -1.34125,-17.09154 -4.35583,-3.4263 -5.27709,-3.44841 -143.69658,-3.44841 -138.419493,0 -139.340751,0.0221 -143.696592,3.44841 -5.14627,4.04806 -5.923523,12.05853 -1.630335,16.80245 2.626761,2.90255 9.308238,3.04271 145.037827,3.04271 130.06209,0 142.54559,-0.23653 145.32693,-2.75362 z M 78.199834,172.20602 c 2.156944,-2.15695 3.327652,-5.54609 3.327652,-9.63339 0,-8.98628 4.348768,-24.48997 9.621756,-34.30231 6.094043,-11.34021 23.740248,-28.711579 36.965378,-36.389658 17.90655,-10.395951 34.16886,-14.780787 58.44175,-15.757749 16.10763,-0.64832 24.06091,-0.18379 34.10844,1.992185 19.19752,4.157573 41.54101,15.477466 54.52656,27.624802 17.49495,16.36566 24.80119,30.15542 27.5717,52.03862 0.85183,6.72825 2.61826,12.66547 4.3314,14.55848 3.49638,3.86344 10.28403,4.13224 15.3176,0.60658 3.14876,-2.20546 3.69787,-4.13013 3.69787,-12.96104 0,-41.13806 -32.79662,-81.817557 -79.68425,-98.836849 -25.35125,-9.20201 -59.30837,-11.652242 -85.90505,-6.198621 -32.75862,6.717121 -64.399904,25.762208 -81.497587,49.05391 -12.343123,16.8147 -20.68323,39.82723 -20.760244,57.28293 -0.05357,12.14185 12.07363,18.7855 19.937025,10.92211 z"
   id="path3388" /><path
   style="fill:#3de6fb;fill-opacity:1;stroke-width:1.66383"
   d="m 32.982327,302.46832 c -2.449571,-0.37476 -5.200883,-1.58162 -6.114027,-2.68189 -1.051857,-1.2674 -2.103423,-51.42021 -2.869589,-136.86062 L 22.789385,28.065684 28.383313,25.748603 c 8.312415,-3.443114 327.569017,-3.449301 335.880647,-0.0065 l 5.57823,2.310571 -1.19543,134.886116 c -0.90743,102.38888 -1.68361,135.39061 -3.22168,136.98008 -1.5548,1.60675 -23.53013,2.34686 -94.44652,3.18088 l -92.42026,1.08691 -1.07364,-4.0128 c -0.5905,-2.20703 -1.08386,-6.82048 -1.09636,-10.25213 l -0.0227,-6.23934 78.61579,-0.01 c 47.77968,-0.005 80.98804,-0.66821 84.6638,-1.6892 4.1815,-1.16146 6.63487,-3.09674 7.94965,-6.27088 1.37739,-3.32534 1.77415,-35.00805 1.43921,-114.92632 L 348.5716,50.45133 344.78486,47.385697 c -2.08271,-1.686099 -8.07248,-3.634687 -13.31061,-4.330196 -12.42149,-1.649305 -257.864021,-1.649305 -270.285507,0 -5.23813,0.695509 -11.227904,2.644091 -13.31061,4.330179 l -3.786737,3.065615 -0.485237,108.712365 c -0.311796,69.85445 0.120228,111.15027 1.208683,115.53287 0.931656,3.75128 1.228926,11.80004 0.660596,17.88613 -1.120003,11.99386 -0.730052,11.68529 -12.493111,9.88566 z"
   id="path4116" /></svg>
