<?xml version="1.0" encoding="UTF-8" standalone="no"?>
<svg
   width="120px"
   height="120px"
   viewBox="0 0 120 120"
   id="Layer_1"
   style="enable-background:new 0 0 120 120;"
   version="1.1"
   xml:space="preserve"
   sodipodi:docname="logo-001.svg"
   inkscape:version="1.2.1 (9c6d41e, 2022-07-14)"
   xmlns:inkscape="http://www.inkscape.org/namespaces/inkscape"
   xmlns:sodipodi="http://sodipodi.sourceforge.net/DTD/sodipodi-0.dtd"
   xmlns="http://www.w3.org/2000/svg"
   xmlns:svg="http://www.w3.org/2000/svg"><defs
     id="defs19" /><sodipodi:namedview
     id="namedview17"
     pagecolor="#505050"
     bordercolor="#eeeeee"
     borderopacity="1"
     inkscape:showpageshadow="0"
     inkscape:pageopacity="0"
     inkscape:pagecheckerboard="0"
     inkscape:deskcolor="#505050"
     showgrid="false"
     inkscape:zoom="1.9666667"
     inkscape:cx="60"
     inkscape:cy="60"
     inkscape:window-width="1309"
     inkscape:window-height="456"
     inkscape:window-x="0"
     inkscape:window-y="38"
     inkscape:window-maximized="0"
     inkscape:current-layer="g14" /><style
     type="text/css"
     id="style2">
	.st0{fill:#647EFF;}
	.st1{fill:#FFFFFF;}
	.st2{fill:#FFD77A;}
</style><g
     id="g14"><polygon
       class="st0"
       points="60,13.7 70.7,19.9 83.1,19.9 89.3,30.7 100.1,36.9 100.1,49.3 106.3,60 100.1,70.7 100.1,83.1    89.3,89.3 83.1,100.1 70.7,100.1 60,106.3 49.3,100.1 36.9,100.1 30.7,89.3 19.9,83.1 19.9,70.7 13.7,60 19.9,49.3 19.9,36.9    30.7,30.7 36.9,19.9 49.3,19.9  "
       id="polygon4"
       style="fill:#ffffff;fill-opacity:1" /><g
       id="g8"><path
         class="st1"
         d="M60,93.9c-18.7,0-33.9-15.2-33.9-33.9S41.3,26.1,60,26.1S93.9,41.3,93.9,60S78.7,93.9,60,93.9z M60,29    c-17.1,0-31,13.9-31,31s13.9,31,31,31s31-13.9,31-31S77.1,29,60,29z"
         id="path6"
         style="fill:#000080" /></g><g
       id="g12"
       style="fill:#000000"><path
         class="st2"
         d="M56.3,72.6L41.6,60.9c-1.2-1-1.4-2.7-0.4-3.9l0,0c1-1.2,2.7-1.4,3.9-0.4l12.6,10.1l16.8-18.8    c1-1.1,2.8-1.2,3.9-0.2v0c1.1,1,1.2,2.8,0.2,3.9L60.1,72.3C59.1,73.4,57.4,73.5,56.3,72.6z"
         id="path10"
         style="fill:#000000" /></g></g></svg>
